PathFileType	4	(X/Y/Z)	OpenSim_Sub04_CSStiffKnee_Magnet.trc
DataRate	CameraRate	NumFrames	NumMarkers	Units	OrigDataRate	OrigDataStartFrame	OrigNumFrames
100	100	37	8	m	100	6487	7413
Frame#	Time	torso_imu_offset_imu	pelvis_imu_offset_imu	tibia_r_imu_offset_imu	femur_r_imu_offset_imu	tibia_l_imu_offset_imu	femur_l_imu_offset_imu	toes_r_imu_offset_imu	toes_l_imu_offset_imu
				X1	Y1	Z1	X2	Y2	Z2	X3	Y3	Z3	X4	Y4	Z4	X5	Y5	Z5	X6	Y6	Z6	X7	Y7	Z7	X8		Y8	Z8	

6487	64.86000000	0.92590797	0.24615343	-0.17840300	-0.52502032	0.14711303	-0.76794169	-0.56562088	-0.60006983	-0.11865132	-0.85087053	0.02059461	-0.01845220	-0.26102247	0.78376776	0.29481264	-0.18527526	0.43344433	0.60363032	-0.68398975	-0.20788281	-0.35944753	-0.84791369	-0.29737323	0.03108701
6488	64.87000000	0.93089860	0.24560668	-0.17182025	-0.51819420	0.14176479	-0.76567639	-0.55753078	-0.60712855	-0.11429812	-0.85388216	0.01112864	-0.00951543	-0.24625196	0.78486662	0.28891408	-0.19035369	0.43832881	0.59832369	-0.68962358	-0.20955188	-0.36373582	-0.84725769	-0.28837383	0.06991445
6489	64.88000000	0.92726103	0.24383299	-0.16564584	-0.52074013	0.14232260	-0.76407652	-0.55441666	-0.61376984	-0.11659315	-0.85440915	-0.00198333	-0.01118321	-0.23160303	0.78829088	0.29264206	-0.19723347	0.43614493	0.59340344	-0.68876221	-0.21029678	-0.36705340	-0.84430560	-0.28431540	0.10952487
6490	64.89000000	0.92525539	0.24312970	-0.17113944	-0.51834028	0.13984016	-0.76972795	-0.55126168	-0.61788413	-0.11119894	-0.85249108	-0.01246904	-0.00171371	-0.21955048	0.78572794	0.30293185	-0.20432068	0.44013877	0.58056778	-0.69138166	-0.21413559	-0.37529464	-0.83775996	-0.27019735	0.14593900
6491	64.90000000	0.92528969	0.24461705	-0.17641618	-0.51472627	0.13313131	-0.76815997	-0.54390199	-0.62619160	-0.10363299	-0.85114074	-0.02726949	0.00170388	-0.20938512	0.79343446	0.30707630	-0.21810170	0.44053649	0.57797323	-0.69713410	-0.22484987	-0.37595946	-0.83522803	-0.25314561	0.17283069
6492	64.91000000	0.92956410	0.24457147	-0.17189357	-0.51588437	0.13365980	-0.77398294	-0.53848697	-0.62551132	-0.10251394	-0.85073892	-0.03835492	0.00362667	-0.19515365	0.79392868	0.31093876	-0.22067246	0.43471534	0.57150622	-0.69964973	-0.22570773	-0.38114113	-0.83192124	-0.24133515	0.20109624
6493	64.92000000	0.93122320	0.24293250	-0.16929316	-0.52265463	0.13403001	-0.77544907	-0.53723390	-0.62922344	-0.10026174	-0.85148479	-0.04507795	0.01362509	-0.18203487	0.79013249	0.31837294	-0.22292814	0.43252637	0.57161160	-0.70146633	-0.22494814	-0.38963841	-0.82749618	-0.22671323	0.22097286
6494	64.93000000	0.93151411	0.24290781	-0.16701029	-0.52768060	0.13810215	-0.77174843	-0.53570042	-0.63208693	-0.09572895	-0.84647421	-0.05952430	0.01184762	-0.18790184	0.78817614	0.32597116	-0.22781431	0.42721783	0.56797611	-0.70455942	-0.23266551	-0.39028387	-0.82727230	-0.22029865	0.22336140
6495	64.94000000	0.92782635	0.24717651	-0.16369388	-0.52137460	0.13320701	-0.77534727	-0.53579473	-0.64004799	-0.09599895	-0.85184232	-0.07975331	0.01700193	-0.17745950	0.78517445	0.32429918	-0.22904545	0.42331139	0.57488921	-0.70884053	-0.24118436	-0.39873126	-0.82967240	-0.21983269	0.22325799
6496	64.95000000	0.92844271	0.24886474	-0.16152098	-0.52177912	0.13311071	-0.76979823	-0.52865330	-0.64685221	-0.10318506	-0.84633229	-0.08516650	0.02961590	-0.18320208	0.78915439	0.31955084	-0.23204147	0.42024500	0.58699057	-0.71198677	-0.24724672	-0.40208712	-0.83641888	-0.22275030	0.21099570
6497	64.96000000	0.93339308	0.24783437	-0.16123522	-0.52421809	0.12957111	-0.77312762	-0.52959202	-0.64115484	-0.10557505	-0.84190389	-0.09615070	0.03492735	-0.19960945	0.78968195	0.31287142	-0.23025719	0.41539146	0.58446229	-0.72029462	-0.24894286	-0.39874929	-0.83976063	-0.22608137	0.19244077
6498	64.97000000	0.92983062	0.24253611	-0.15716941	-0.52425650	0.12648009	-0.77772671	-0.53251817	-0.63761746	-0.10628415	-0.84577310	-0.11748832	0.03509612	-0.20895823	0.78694878	0.30285652	-0.23366526	0.41164532	0.58880029	-0.72079375	-0.25619964	-0.40614725	-0.84480115	-0.22877209	0.17132889
6499	64.98000000	0.93278308	0.24772610	-0.15903221	-0.52886064	0.12801805	-0.77930323	-0.52767882	-0.64405500	-0.10008270	-0.84002132	-0.13023196	0.04016878	-0.22556843	0.78411895	0.29993524	-0.23693764	0.40416762	0.59041091	-0.72573342	-0.26493161	-0.41379012	-0.84764938	-0.23526466	0.15112710
6500	64.99000000	0.93318262	0.24846371	-0.15886919	-0.51984801	0.12145740	-0.77562930	-0.52443933	-0.64828040	-0.09420853	-0.83634443	-0.14111561	0.04589205	-0.24567522	0.77693621	0.30149563	-0.23525190	0.39725563	0.58992135	-0.73397098	-0.26920558	-0.41522321	-0.84636175	-0.23879672	0.12343361
6501	65	0.93013714	0.24758829	-0.15404269	-0.52389620	0.12153022	-0.78045244	-0.52527105	-0.64511958	-0.10277433	-0.83105839	-0.15494256	0.05485943	-0.26191804	0.77611627	0.29952645	-0.23868219	0.39555384	0.59407948	-0.73521874	-0.27454348	-0.42125111	-0.84941235	-0.24205091	0.08645245
6502	65.01000000	0.93245702	0.24617119	-0.15518170	-0.52293467	0.11699130	-0.78223182	-0.52635542	-0.64744256	-0.10204008	-0.82797359	-0.17131683	0.05768268	-0.28303630	0.76704906	0.29193429	-0.24064755	0.38925115	0.59860041	-0.73981354	-0.28074846	-0.42021701	-0.85315813	-0.24419584	0.05338154
6503	65.02000000	0.93305801	0.24490897	-0.14779070	-0.52173632	0.11271375	-0.78643771	-0.52597299	-0.64115303	-0.10663435	-0.82688433	-0.18600229	0.05715514	-0.29591612	0.76110851	0.28793550	-0.24901346	0.38958549	0.59338833	-0.74532872	-0.28829680	-0.42034465	-0.85268583	-0.24275944	0.02205259
6504	65.03000000	0.93422238	0.24797703	-0.14909269	-0.52725031	0.11336041	-0.79246495	-0.52775378	-0.64427788	-0.10635302	-0.82300717	-0.20326980	0.06339222	-0.32199348	0.75966205	0.29189693	-0.25586630	0.38226250	0.58640020	-0.74775128	-0.29543891	-0.42373688	-0.84847335	-0.24673370	-0.00708390
6505	65.04000000	0.93499781	0.24866119	-0.14928714	-0.52835797	0.10562635	-0.78529584	-0.52751036	-0.64301338	-0.10351040	-0.81652990	-0.21091454	0.06177324	-0.33647140	0.74465391	0.28852718	-0.26262421	0.37270760	0.59162037	-0.74925975	-0.30039565	-0.41913511	-0.84452831	-0.24407999	-0.03188791
6506	65.05000000	0.92785427	0.24844759	-0.14031727	-0.52999077	0.10404282	-0.78533087	-0.52473860	-0.64681900	-0.10752130	-0.81356089	-0.22108165	0.06138684	-0.35737336	0.73041444	0.28716349	-0.26726856	0.37043774	0.59282833	-0.75374007	-0.30301709	-0.42158531	-0.83710700	-0.24841236	-0.05798096
6507	65.06000000	0.93146012	0.24875843	-0.13872037	-0.52638665	0.10231134	-0.79032585	-0.52344566	-0.65105345	-0.11526975	-0.80603582	-0.23263493	0.06346650	-0.37963642	0.73027740	0.28160679	-0.27191507	0.36119378	0.58354385	-0.76093219	-0.30628999	-0.42597075	-0.83704498	-0.25933835	-0.07448335
6508	65.07000000	0.93485215	0.24725412	-0.13630580	-0.52551254	0.09405251	-0.78777592	-0.52566553	-0.64892206	-0.11968003	-0.80506327	-0.24125921	0.06338193	-0.39520048	0.72774985	0.26934375	-0.27568899	0.36176897	0.58104757	-0.76268295	-0.31104000	-0.42012024	-0.83028263	-0.25832758	-0.09355885
6509	65.08000000	0.93220098	0.24585982	-0.13245991	-0.52846520	0.09371808	-0.79126472	-0.52454891	-0.64799707	-0.12573929	-0.80655221	-0.25233655	0.06285779	-0.40491748	0.71969697	0.27041765	-0.28082766	0.35881421	0.58574416	-0.76417074	-0.32075401	-0.41944823	-0.81671391	-0.26194769	-0.11171040
6510	65.09000000	0.93599558	0.24794976	-0.13222259	-0.52921038	0.09375937	-0.78737199	-0.52563553	-0.64779757	-0.12408318	-0.80193870	-0.26054947	0.05966584	-0.42114599	0.70692216	0.26302084	-0.29230917	0.34980933	0.57956001	-0.77056477	-0.31811070	-0.41760865	-0.80545832	-0.27353814	-0.13212261
6511	65.10000000	0.93633749	0.24752256	-0.13127034	-0.52887062	0.09188706	-0.78995872	-0.52280968	-0.65144813	-0.12937464	-0.79913729	-0.26463623	0.06267226	-0.43743054	0.70022857	0.25797129	-0.29778524	0.34386150	0.57732797	-0.76580185	-0.32292205	-0.41752269	-0.79477627	-0.28135857	-0.14717982
6512	65.11000000	0.93519086	0.24629546	-0.13612536	-0.52962516	0.09448182	-0.79622551	-0.51693884	-0.64798377	-0.13538867	-0.79600307	-0.28025965	0.06319867	-0.44993091	0.68888902	0.26333500	-0.29840961	0.33700241	0.57760135	-0.77001260	-0.33159226	-0.42260464	-0.78740895	-0.28818697	-0.15451482
6513	65.12000000	0.93478937	0.24685989	-0.12948897	-0.52599742	0.09198905	-0.79093602	-0.51365477	-0.65216199	-0.14335855	-0.79632134	-0.29013532	0.05652133	-0.46415461	0.67755254	0.26214799	-0.30372085	0.33204828	0.56736215	-0.77572675	-0.32876229	-0.41712302	-0.78005313	-0.30078557	-0.16438641
6514	65.13000000	0.93715561	0.24401925	-0.12750093	-0.52649851	0.09110392	-0.79224823	-0.51451566	-0.65555771	-0.14775055	-0.78902322	-0.29719314	0.06020145	-0.47947500	0.66343320	0.26606344	-0.30903436	0.32614625	0.57020752	-0.77430381	-0.33266499	-0.41285482	-0.77409429	-0.30981787	-0.17062871
6515	65.14000000	0.93447797	0.24032274	-0.12750182	-0.53228816	0.09344382	-0.79514884	-0.51459061	-0.65950215	-0.15107330	-0.78295467	-0.30463866	0.05606748	-0.49755835	0.64842194	0.26597809	-0.31377969	0.32124192	0.57657060	-0.77416469	-0.33489139	-0.41531879	-0.76152606	-0.31686951	-0.18355754
6516	65.15000000	0.93683803	0.24097945	-0.12490615	-0.53174565	0.08925780	-0.79293606	-0.51000359	-0.65968844	-0.15466286	-0.78790869	-0.30793847	0.06183530	-0.51401267	0.63980273	0.27407682	-0.32259663	0.31330732	0.57828726	-0.77595889	-0.33846304	-0.41551194	-0.75472442	-0.32699457	-0.19576597
6517	65.16000000	0.94036728	0.24389337	-0.12414430	-0.52273809	0.09176095	-0.79086908	-0.50971742	-0.65677029	-0.15356432	-0.78485550	-0.31379807	0.06261736	-0.52740847	0.62056110	0.27519736	-0.32615181	0.29969962	0.58809886	-0.77432131	-0.34248764	-0.41755650	-0.74875370	-0.33880711	-0.20426479
6518	65.17000000	0.93820550	0.24353510	-0.12193085	-0.52276445	0.09654775	-0.78843472	-0.50372899	-0.65879653	-0.15580410	-0.78064393	-0.31888152	0.06092687	-0.54111723	0.60472138	0.27542793	-0.32267343	0.29118981	0.58732493	-0.77004913	-0.34473904	-0.41472883	-0.74087955	-0.34517656	-0.21156525
6519	65.18000000	0.93633586	0.24013831	-0.11803033	-0.52493387	0.09721226	-0.78738717	-0.50010147	-0.66134124	-0.15379666	-0.77593644	-0.32241038	0.05785339	-0.55896661	0.59312010	0.27707882	-0.32584610	0.28231575	0.58147131	-0.77242363	-0.34285123	-0.41681164	-0.73952061	-0.35195723	-0.22063170
6520	65.19000000	0.93352603	0.24333949	-0.11603448	-0.52758015	0.10350463	-0.78912941	-0.49833819	-0.67022998	-0.15919074	-0.77210167	-0.32745110	0.05651637	-0.57202045	0.57211305	0.27944893	-0.33193947	0.27247622	0.58393542	-0.77603661	-0.34903773	-0.42204402	-0.72959115	-0.35914426	-0.23229175
6521	65.20000000	0.93446738	0.24097425	-0.11679033	-0.52931148	0.10330373	-0.79202271	-0.49211077	-0.67621182	-0.16137068	-0.76821598	-0.32715836	0.05504208	-0.58339852	0.55412157	0.27491475	-0.33381361	0.26278140	0.59110586	-0.77462894	-0.35500523	-0.42039740	-0.72828875	-0.36836050	-0.23461886
6522	65.21000000	0.93574243	0.23691993	-0.11374358	-0.53120191	0.10843848	-0.79100037	-0.48535650	-0.67627720	-0.16148567	-0.76909689	-0.33702804	0.05381597	-0.59626845	0.54680218	0.27412474	-0.33737746	0.25096577	0.59299600	-0.76592132	-0.35749225	-0.41986343	-0.72730540	-0.36866029	-0.24832097
6523	65.22000000	0.93437254	0.24087091	-0.10994115	-0.52960489	0.10897046	-0.78282402	-0.48157174	-0.67615873	-0.17020861	-0.77082864	-0.34587509	0.04951932	-0.60315571	0.53569474	0.27745680	-0.33960023	0.24314650	0.58751684	-0.76522262	-0.36019316	-0.41661955	-0.71984275	-0.36601511	-0.26514882
